<?xml version="1.0" standalone="no"?>
<!DOCTYPE svg PUBLIC "-//W3C//DTD SVG 20010904//EN"
 "http://www.w3.org/TR/2001/REC-SVG-20010904/DTD/svg10.dtd">
<svg version="1.0" xmlns="http://www.w3.org/2000/svg"
 width="329.000000pt" height="585.000000pt" viewBox="0 0 329.000000 585.000000"
 preserveAspectRatio="xMidYMid meet">

<g transform="translate(0.000000,585.000000) scale(0.100000,-0.100000)"
fill="current" stroke="none">
<path d="M1505 5839 c-386 -30 -759 -203 -1035 -480 -129 -129 -221 -257 -299
-414 -186 -376 -217 -780 -89 -1185 40 -128 134 -314 216 -429 87 -123 253
-289 370 -371 50 -35 92 -71 92 -80 0 -8 -114 -660 -253 -1447 l-253 -1433
1392 0 1392 0 -9 42 c-13 66 -499 2836 -499 2845 0 5 42 38 92 73 117 82 283
248 370 371 338 474 387 1090 127 1614 -78 157 -170 285 -299 414 -226 227
-519 386 -829 450 -91 19 -311 43 -366 39 -11 0 -65 -4 -120 -9z m438 -442
c214 -57 377 -149 538 -307 165 -162 266 -335 326 -557 25 -90 27 -114 27
-293 0 -179 -2 -203 -27 -293 -60 -222 -161 -395 -326 -557 -160 -157 -321
-249 -538 -307 -90 -25 -113 -27 -293 -27 -179 0 -203 2 -293 27 -222 60 -395
161 -557 326 -157 160 -249 321 -307 538 -25 90 -27 113 -27 293 0 179 2 203
27 293 109 405 418 729 807 848 132 40 206 49 380 45 137 -3 181 -8 263 -29z
m293 -2972 c4 -15 0 -34 -9 -48 -8 -12 -301 -418 -651 -902 l-636 -880 782 -3
c557 -1 785 -5 795 -13 17 -15 17 -63 -1 -78 -10 -8 -245 -10 -867 -9 l-854 3
0 30 c1 23 142 226 643 923 353 492 642 896 642 898 0 2 -217 4 -483 4 -362 0
-486 3 -495 12 -15 15 -15 61 0 76 9 9 149 12 570 12 l558 0 6 -25z"/>
</g>
</svg>
